HIERARCHY
ROOT joint_Root
{
	OFFSET 0.0 0.0 0.0
	CHANNELS 6 Xposition Yposition Zposition Zrotation Xrotation Yrotation 
	JOINT Hips
	{
		OFFSET 4.5925 91.4895 -427.239
		CHANNELS 6 Xposition Yposition Zposition Zrotation Xrotation Yrotation 
		JOINT Spine
		{
			OFFSET 15.7357 0.0 0.0
			CHANNELS 6 Xposition Yposition Zposition Zrotation Xrotation Yrotation 
			JOINT Chest
			{
				OFFSET 8.98455 -0.406207 0.0
				CHANNELS 6 Xposition Yposition Zposition Zrotation Xrotation Yrotation 
				JOINT Neck
				{
					OFFSET 16.3773 0.0 0.0
					CHANNELS 6 Xposition Yposition Zposition Zrotation Xrotation Yrotation 
					JOINT Head
					{
						OFFSET 6.45672 0.0 0.0
						CHANNELS 6 Xposition Yposition Zposition Zrotation Xrotation Yrotation 
						End Site
						{
							OFFSET 0.0 0.0 0.0
						}
					}
				}
				JOINT Shoulder_L
				{
					OFFSET 12.9942 -0.242716 4.98039
					CHANNELS 6 Xposition Yposition Zposition Zrotation Xrotation Yrotation 
					JOINT UpperArm_L
					{
						OFFSET 5.34809 0.0 0.0
						CHANNELS 6 Xposition Yposition Zposition Zrotation Xrotation Yrotation 
						JOINT LowerArm_L
						{
							OFFSET 24.3286 1.87007e-05 0.0
							CHANNELS 6 Xposition Yposition Zposition Zrotation Xrotation Yrotation 
							JOINT Hand_L
							{
								OFFSET 22.2916 0.0 0.0
								CHANNELS 6 Xposition Yposition Zposition Zrotation Xrotation Yrotation 
								End Site
								{
									OFFSET 0.0 0.0 0.0
								}
							}
						}
					}
				}
				JOINT Shoulder_R
				{
					OFFSET 12.9945 -0.242716 -4.98039
					CHANNELS 6 Xposition Yposition Zposition Zrotation Xrotation Yrotation 
					JOINT UpperArm_R
					{
						OFFSET -5.34813 0.0 0.0
						CHANNELS 6 Xposition Yposition Zposition Zrotation Xrotation Yrotation 
						JOINT LowerArm_R
						{
							OFFSET -24.3289 0.000322201 0.0
							CHANNELS 6 Xposition Yposition Zposition Zrotation Xrotation Yrotation 
							JOINT Hand_R
							{
								OFFSET -22.2915 -0.000108084 0.0
								CHANNELS 6 Xposition Yposition Zposition Zrotation Xrotation Yrotation 
								End Site
								{
									OFFSET 0.0 0.0 0.0
								}
							}
						}
					}
				}
			}
		}
		JOINT UpperLeg_L
		{
			OFFSET -2.19248 -6.46944 0.0
			CHANNELS 6 Xposition Yposition Zposition Zrotation Xrotation Yrotation 
			JOINT LowerLeg_L
			{
				OFFSET 39.0811 0.0 -1.23785e-05
				CHANNELS 6 Xposition Yposition Zposition Zrotation Xrotation Yrotation 
				JOINT Foot_L
				{
					OFFSET 40.9854 0.0 -1.26872e-05
					CHANNELS 6 Xposition Yposition Zposition Zrotation Xrotation Yrotation 
					JOINT Toes_L
					{
						OFFSET 11.7543 0.0 0.0
						CHANNELS 6 Xposition Yposition Zposition Zrotation Xrotation Yrotation 
						End Site
						{
							OFFSET 0.0 0.0 0.0
						}
					}
				}
			}
		}
		JOINT UpperLeg_R
		{
			OFFSET -2.19251 6.46944 0.0
			CHANNELS 6 Xposition Yposition Zposition Zrotation Xrotation Yrotation 
			JOINT LowerLeg_R
			{
				OFFSET -39.0811 -0.00228153 -0.0401928
				CHANNELS 6 Xposition Yposition Zposition Zrotation Xrotation Yrotation 
				JOINT Foot_R
				{
					OFFSET -40.9854 0.0 0.0
					CHANNELS 6 Xposition Yposition Zposition Zrotation Xrotation Yrotation 
					JOINT Toes_R
					{
						OFFSET -11.7543 0.0 0.0
						CHANNELS 6 Xposition Yposition Zposition Zrotation Xrotation Yrotation 
						End Site
						{
							OFFSET 0.0 0.0 0.0
						}
					}
				}
			}
		}
	}
}
MOTION
Frames:	6
Frame Time:	0.0333333
0.000000 0.000000 0.000000 0.000000 0.000000 -0.000000 -0.469191 83.590000 1.370270 88.926500 -6.153170 16.013800 15.735700 0.000005 -0.000001 89.693600 79.434000 -89.905800 8.984550 -0.406207 -0.000000 13.365400 -0.122138 -0.409981 16.377300 -0.000001 -0.000001 -2.064690 -3.019600 1.281870 6.456720 -0.000001 -0.000000 -7.308800 -3.000150 0.532256 12.994200 -0.242716 4.980390 -91.072500 2.508460 -66.841300 5.348090 -0.000007 -0.000001 -75.641200 9.662530 6.194990 24.328600 0.000019 0.000005 3.226580 10.442500 -17.276500 22.291600 -0.000001 0.000005 15.555700 5.199650 2.728100 12.994500 -0.242716 -4.980390 88.000200 7.367440 -74.767300 -5.348130 -0.000001 -0.000004 -65.846500 -0.475596 -4.350410 -24.328900 0.000322 -0.000009 -0.643065 -9.838690 -3.750970 -22.291500 -0.000108 -0.000004 4.778160 5.034970 6.570840 -2.192480 -6.469440 -0.000000 -171.468000 -13.763300 -4.873480 39.081100 -0.000007 -0.000012 -0.464810 0.298231 57.316100 40.985400 -0.000006 -0.000013 0.792982 4.549660 -85.592400 11.754300 -0.000000 0.000003 -0.000433 -0.003532 -16.707400 -2.192510 6.469440 -0.000001 175.439000 12.163700 173.432000 -39.081100 -0.002282 -0.040193 0.061550 -0.036569 57.918700 -40.985400 0.000008 0.000006 4.925620 4.286800 -84.188200 -11.754300 -0.000006 -0.000006 -0.714402 -0.877486 -17.186500
0.000000 0.000000 0.000000 0.000000 0.000000 -0.000000 -0.419441 86.275100 1.724830 88.973200 -4.758760 14.410500 15.735700 0.000005 -0.000001 89.761000 80.951900 -89.973100 8.984550 -0.406207 -0.000000 10.329900 -0.079712 -0.416759 16.377300 -0.000001 -0.000001 0.091640 -3.353540 0.992802 6.456720 -0.000001 -0.000000 -6.215210 -3.361310 -0.105069 12.994200 -0.242716 4.980390 -90.374500 0.856468 -66.383400 5.348090 -0.000007 -0.000001 -69.998700 2.777270 1.749770 24.328600 0.000019 0.000005 4.898690 14.448300 -18.957900 22.291600 -0.000001 0.000005 15.759900 5.159420 3.716470 12.994500 -0.242716 -4.980390 88.492500 5.201130 -73.810700 -5.348130 -0.000001 -0.000004 -60.825700 -9.383990 -7.554460 -24.328900 0.000322 -0.000009 -0.208757 -7.484280 -1.594260 -22.291500 -0.000108 -0.000004 2.449480 4.924490 8.885410 -2.192480 -6.469440 -0.000000 -172.094000 -13.520900 -2.371750 39.081100 -0.000007 -0.000012 -0.365792 0.320759 48.753700 40.985400 -0.000006 -0.000013 0.924405 5.449970 -81.309800 11.754300 -0.000000 0.000003 -0.000313 -0.002698 -16.677900 -2.192510 6.469440 -0.000001 174.622000 15.048900 176.436000 -39.081100 -0.002282 -0.040193 0.046569 -0.036903 49.573000 -40.985400 0.000008 0.000006 5.117850 6.339790 -79.919600 -11.754300 -0.000006 -0.000006 -0.546125 -0.670089 -17.739400
0.000000 0.000000 0.000000 0.000000 0.000000 -0.000000 -0.310232 88.691800 1.606160 89.121900 -3.679180 10.609600 15.735700 0.000005 -0.000001 89.980500 83.581200 -90.244000 8.984550 -0.406207 -0.000000 5.071570 0.001827 -0.526539 16.377300 -0.000001 -0.000001 4.168080 -3.215640 0.956501 6.456720 -0.000001 -0.000000 -4.623580 -3.390710 -0.733945 12.994200 -0.242716 4.980390 -89.593200 -0.895768 -65.573500 5.348090 -0.000007 -0.000001 -62.223800 -7.901590 -6.226590 24.328600 0.000019 0.000005 4.407990 11.194900 -21.656600 22.291600 -0.000001 0.000005 16.418900 5.120750 4.633810 12.994500 -0.242716 -4.980390 89.050400 3.077450 -72.841500 -5.348130 -0.000001 -0.000004 -53.611600 -18.972300 -14.131300 -24.328900 0.000322 -0.000009 -0.097493 -7.628630 -0.726363 -22.291500 -0.000108 -0.000004 4.901170 4.917010 9.037550 -2.192480 -6.469440 -0.000000 -173.651000 -13.044400 -2.360840 39.081100 -0.000007 -0.000012 -0.255882 0.306106 39.893600 40.985400 -0.000006 -0.000013 0.664821 5.498480 -76.513700 11.754300 -0.000000 0.000003 -0.000195 -0.001814 -16.646000 -2.192510 6.469440 -0.000001 174.820000 17.576900 176.665000 -39.081100 -0.002282 -0.040193 0.029401 -0.029894 41.151100 -40.985400 0.000008 0.000006 4.769730 8.280050 -75.007400 -11.754300 -0.000006 -0.000006 -0.403435 -0.503317 -18.364200
0.000000 0.000000 0.000000 0.000000 0.000000 -0.000000 -0.202920 90.248700 1.362960 89.108800 -3.069300 7.268390 15.735700 0.000005 -0.000001 90.842800 85.793300 -90.973100 8.984550 -0.406207 -0.000000 0.646640 0.131809 -0.261193 16.377300 -0.000001 -0.000001 7.579890 -3.332700 0.753315 6.456720 -0.000001 -0.000000 -2.949100 -3.279350 -1.548840 12.994200 -0.242716 4.980390 -89.185700 -1.790360 -65.536000 5.348090 -0.000007 -0.000001 -53.760900 -18.456600 -17.036100 24.328600 0.000019 0.000005 5.029060 9.655180 -27.685000 22.291600 -0.000001 0.000005 15.617000 5.130510 4.405150 12.994500 -0.242716 -4.980390 89.574000 1.313240 -72.026600 -5.348130 -0.000001 -0.000004 -48.245700 -31.618400 -25.936800 -24.328900 0.000322 -0.000009 -0.723539 -11.506500 -3.613480 -22.291500 -0.000108 -0.000004 9.074830 5.047890 6.288540 -2.192480 -6.469440 -0.000000 -174.924000 -11.941800 -2.875030 39.081100 -0.000007 -0.000012 -0.204270 0.312730 33.152300 40.985400 -0.000006 -0.000013 0.235275 4.695030 -72.803100 11.754300 -0.000000 0.000003 -0.000148 -0.001439 -16.632300 -2.192510 6.469440 -0.000001 175.629000 19.218400 176.308000 -39.081100 -0.002282 -0.040193 0.017485 -0.020601 34.564800 -40.985400 0.000008 0.000006 4.458940 9.520490 -71.409700 -11.754300 -0.000006 -0.000006 -0.255923 -0.335041 -18.556800
0.000000 0.000000 0.000000 0.000000 0.000000 -0.000000 -0.153959 90.879400 1.148240 89.071000 -2.798650 5.818210 15.735700 0.000005 -0.000001 87.143200 86.727100 -87.068700 8.984550 -0.406207 -0.000000 -1.228120 -0.332025 0.145525 16.377300 -0.000001 -0.000001 8.664930 -3.236700 0.303068 6.456720 -0.000001 -0.000000 -1.824790 -3.086420 -2.230280 12.994200 -0.242716 4.980390 -88.980300 -2.318250 -66.248000 5.348090 -0.000007 -0.000001 -43.031000 -28.515700 -27.351800 24.328600 0.000019 0.000005 6.324740 8.447800 -37.034200 22.291600 -0.000001 0.000005 17.915500 5.236880 1.781360 12.994500 -0.242716 -4.980390 90.224800 -0.725561 -72.778400 -5.348130 -0.000001 -0.000004 -50.058000 -44.266100 -43.392000 -24.328900 0.000322 -0.000009 -6.033260 -22.868400 -15.206700 -22.291500 -0.000108 -0.000004 11.509900 5.414380 -3.394930 -2.192480 -6.469440 -0.000000 -175.530000 -10.829500 -3.102580 39.081100 -0.000007 -0.000012 -0.182377 0.314887 30.079000 40.985400 -0.000006 -0.000013 -0.067077 3.776180 -71.058500 11.754300 -0.000000 0.000003 -0.000126 -0.001249 -16.625300 -2.192510 6.469440 -0.000001 176.167000 19.803000 176.745000 -39.081100 -0.002282 -0.040193 0.011808 -0.014357 30.648200 -40.985400 0.000008 0.000006 4.504240 9.796940 -70.509800 -11.754300 -0.000006 -0.000006 -0.003480 -0.045914 -18.440600
0.000000 0.000000 0.000000 0.000000 0.000000 -0.000000 -0.177212 90.995800 0.989011 89.189600 -3.186890 5.898530 15.735700 0.000005 -0.000001 84.511400 86.546000 -84.383000 8.984550 -0.406207 -0.000000 -0.888945 -0.670293 0.251611 16.377300 -0.000001 -0.000001 7.047560 -3.070840 0.485411 6.456720 -0.000001 -0.000000 -1.554440 -2.450350 -2.679110 12.994200 -0.242716 4.980390 -88.144500 -4.265230 -66.463100 5.348090 -0.000007 -0.000001 -31.295000 -39.860600 -34.422400 24.328600 0.000019 0.000005 7.004850 6.473540 -47.460300 22.291600 -0.000001 0.000005 25.982700 5.302630 -0.000099 12.994500 -0.242716 -4.980390 91.093100 -3.601380 -73.103300 -5.348130 -0.000001 -0.000004 -46.986300 -49.356800 -55.922000 -24.328900 0.000322 -0.000009 -13.500900 -19.684500 -35.487200 -22.291500 -0.000108 -0.000004 19.467400 5.605700 -11.671100 -2.192480 -6.469440 -0.000000 -175.704000 -10.615700 -2.780880 39.081100 -0.000007 -0.000012 -0.172566 0.305997 29.421000 40.985400 -0.000006 -0.000013 -0.236111 3.279990 -70.642500 11.754300 -0.000000 0.000003 -0.000110 -0.001116 -16.620300 -2.192510 6.469440 -0.000001 176.136000 19.105800 177.605000 -39.081100 -0.002282 -0.040193 -0.022024 0.045580 29.059900 -40.985400 0.000008 0.000006 4.131360 9.573770 -70.809800 -11.754300 -0.000006 -0.000006 -0.003593 -0.047138 -18.490400
